<svg width="200" height="200" fill="none" xmlns="http://www.w3.org/2000/svg"><g clip-path="url(#a)"><mask id="b" style="mask-type:luminance" maskUnits="userSpaceOnUse" x="0" y="0" width="200" height="200"><path d="M200 0H0v200h200V0Z" fill="#fff"/></mask><g mask="url(#b)"><path d="M50 119.999c20.25 0 36.667-16.416 36.667-36.666 0-20.25-16.416-36.667-36.667-36.667-20.25 0-36.667 16.416-36.667 36.667 0 20.25 16.417 36.666 36.667 36.666Z" fill="url(#c)"/><path d="M176.667 60H55c-.917 0-1.667.75-1.667 1.667V105c0 .917.75 1.667 1.667 1.667h121.667c12.916 0 23.333-10.417 23.333-23.334C200 70.417 189.583 60 176.667 60Z" fill="#0052FF"/><path d="M86.667 83.333c0-8.833-3.167-17-8.417-23.333H55c-.917 0-1.667.75-1.667 1.667V105c0 .917.75 1.667 1.667 1.667h23.25a36.52 36.52 0 0 0 8.417-23.334Z" fill="#000"/><path d="M46.667 80H0v6.667h46.667V80Z" fill="#0052FF"/><path d="M53.333 93.334H41.667c-.917 0-1.667-.75-1.667-1.667V75.001c0-.917.75-1.667 1.667-1.667h11.666v20Z" fill="#0052FF"/><path d="M176.667 106.667c12.886 0 23.333-10.447 23.333-23.334C200 70.447 189.553 60 176.667 60c-12.887 0-23.334 10.447-23.334 23.333 0 12.887 10.447 23.334 23.334 23.334Z" fill="#000"/><path d="M151.667 93.334H68.333c-.916 0-1.666-.75-1.666-1.667V75.001c0-.917.75-1.667 1.666-1.667h83.334c.916 0 1.666.75 1.666 1.667v16.666c0 .917-.75 1.667-1.666 1.667Z" fill="#fff"/><path d="m46.667 100-20 20M53.333 26.666v26.667M53.333 113.334v26.667M46.667 66.666l-20-20" stroke="#fff" stroke-width="2" stroke-miterlimit="10"/><path d="M150.833 80h-77.5v6.667h77.5V80Z" fill="#00D17F"/><path d="M200 83.333C200 70.417 189.583 60 176.667 60A23.092 23.092 0 0 0 161 66.083l-93.75 69c-.75.584-.917 1.584-.333 2.334L92.333 172c.584.75 1.584.917 2.334.333L187.417 104c7.5-3.833 12.583-11.667 12.583-20.667Z" fill="url(#d)"/><path d="M176.667 100c9.204 0 16.666-7.463 16.666-16.667 0-9.205-7.462-16.667-16.666-16.667-9.205 0-16.667 7.462-16.667 16.667 0 9.204 7.462 16.666 16.667 16.666ZM86.667 139.999l37.083-28.333M93 146.915l37.083-28.333M99.333 153.833l37.084-28.333" stroke="#000" stroke-width="2" stroke-miterlimit="10"/><path d="M176.667 100c9.204 0 16.666-7.463 16.666-16.667 0-9.205-7.462-16.667-16.666-16.667-9.205 0-16.667 7.462-16.667 16.667 0 9.204 7.462 16.666 16.667 16.666Z" fill="#000"/><path d="M176.667 93.334c5.522 0 10-4.477 10-10s-4.478-10-10-10c-5.523 0-10 4.477-10 10s4.477 10 10 10Z" stroke="#fff" stroke-width="2" stroke-miterlimit="10"/><path d="m173.191 83.275 3.476 3.477 3.477-3.477-3.477-3.476-3.476 3.476Z" fill="#fff"/></g></g><defs><linearGradient id="c" x1="112.12" y1="124.577" x2="19.649" y2="112.291" gradientUnits="userSpaceOnUse"><stop offset=".698" stop-color="#EBCEF8"/><stop offset=".891" stop-color="#88C837"/></linearGradient><linearGradient id="d" x1="70.644" y1="166.8" x2="212.343" y2="141.699" gradientUnits="userSpaceOnUse"><stop offset=".264" stop-color="#FFD200"/><stop offset=".602" stop-color="#EBCEF8"/></linearGradient><clipPath id="a"><path fill="#fff" d="M0 0h200v200H0z"/></clipPath></defs></svg>