<svg width="200" height="200" fill="none" xmlns="http://www.w3.org/2000/svg"><g clip-path="url(#a)"><path d="M149.437 32c-.535 0-.994 0-1.529.077H33.153L33 100h115.825v-.077h.536C167.939 99.923 183 84.717 183 65.96 183.076 47.205 168.015 32 149.437 32Z" fill="url(#b)"/><path d="M166.437 32c-.535 0-.994 0-1.529.077H50.153L50 100h115.825v-.077h.536C184.939 99.923 200 84.717 200 65.96 200.076 47.205 185.015 32 166.437 32Z" fill="url(#c)"/><path fill-rule="evenodd" clip-rule="evenodd" d="M82.19 69 93 58.104 91.905 57 80 69l11.905 12L93 79.896 82.19 69Z" fill="#0A0B0D"/><path fill-rule="evenodd" clip-rule="evenodd" d="M81 68h77v2H81v-2Z" fill="#0A0B0D"/><path d="M33.5 100C52.002 100 67 84.778 67 66S52.002 32 33.5 32C14.998 32 0 47.222 0 66s14.998 34 33.5 34Z" fill="#0052FF"/><path d="M34 100C15.223 100 0 84.777 0 66s15.223-34 34-34v68Z" fill="#00D17F"/><path d="M34 76.701 26.46 83l.274-9.859L17 71.224l7.814-6.025-4.387-8.763 9.46 2.464L34 50l4.113 8.9 9.46-2.464-4.388 8.763L51 71.224l-9.734 1.917L41.54 83 34 76.701Z" fill="#fff"/><path d="M33.5 94C48.688 94 61 81.464 61 66S48.688 38 33.5 38 6 50.536 6 66s12.312 28 27.5 28Z" stroke="#000" stroke-width="1.623" stroke-miterlimit="10"/><path d="M46.622 168c.535 0 .993 0 1.528-.077h114.697L163 100H47.157v.077h-.535C28.053 100.077 13 115.283 13 134.039 13 152.795 28.053 168 46.622 168Z" fill="#FF9436"/><path d="M33.622 168c.535 0 .993 0 1.528-.077h114.697L150 100H34.157v.077h-.535C15.053 100.077 0 115.283 0 134.039 0 152.795 15.053 168 33.622 168Z" fill="url(#d)"/><path fill-rule="evenodd" clip-rule="evenodd" d="m111.712 137.812-11.537 11.633 1.169 1.178 12.706-12.811L101.344 125l-1.169 1.179 11.537 11.633Z" fill="#0A0B0D"/><path d="M166.5 168c-18.502 0-33.5-15.222-33.5-34s14.998-34 33.5-34c18.502 0 33.5 15.222 33.5 34s-14.998 34-33.5 34Z" fill="#A524FC"/><path fill-rule="evenodd" clip-rule="evenodd" d="M112.397 138.956H29.752v-1.667h82.645v1.667Z" fill="#0A0B0D"/><path d="M166 100c-18.225 0-33 15.223-33 34s14.775 34 33 34v-68Z" fill="#0052FF"/><path d="M151.032 134.025c8.126 2.517 12.915 10.66 14.968 20.975 2.053-10.315 6.842-18.458 14.968-20.975.043 0 .043-.05 0-.05-8.126-2.517-12.915-10.66-14.968-20.975-2.053 10.315-6.842 18.458-14.968 20.975-.043 0-.043.05 0 .05Z" fill="#fff"/><path d="M166.5 162c15.188 0 27.5-12.536 27.5-28s-12.312-28-27.5-28-27.5 12.536-27.5 28 12.312 28 27.5 28Z" stroke="#000" stroke-width="1.623" stroke-miterlimit="10"/></g><defs><linearGradient id="b" x1="52.725" y1="71.828" x2="160.306" y2="17.211" gradientUnits="userSpaceOnUse"><stop offset=".333" stop-color="#F9BEF3"/><stop offset=".75" stop-color="#00D17F"/></linearGradient><linearGradient id="c" x1="50" y1="66" x2="200" y2="66" gradientUnits="userSpaceOnUse"><stop stop-color="#F8BDF5"/><stop offset="1" stop-color="#FFE435"/></linearGradient><linearGradient id="d" x1="13.043" y1="168" x2="150" y2="168" gradientUnits="userSpaceOnUse"><stop stop-color="#B139FF"/><stop offset="1" stop-color="#FF9533"/></linearGradient><clipPath id="a"><path fill="#fff" d="M0 0h200v200H0z"/></clipPath></defs></svg>